<svg id="Layer_5" enable-background="new 0 0 64 64" height="512" viewBox="0 0 64 64" width="512" xmlns="http://www.w3.org/2000/svg"><g><g><g><path d="m12 14h6v22h-6z" fill="#aab2bd"/></g><g><path d="m30 12v2l-6.38-5.47c-.4-.34-.91-.53-1.43-.53-1.21 0-2.19.98-2.19 2.19v1.81c0 1.1-.9 2-2 2h-6c-1.1 0-2-.9-2-2v-2h-3l-.45.89c-.34.68-1.03 1.11-1.79 1.11h-.76c-1.1 0-2-.9-2-2v-6c0-1.1.9-2 2-2h.76c.76 0 1.45.43 1.79 1.11l.45.89h2l.45-.89c.34-.68 1.03-1.11 1.79-1.11h8.76c5.52 0 10 4.48 10 10z" fill="#e6e9ed"/></g><g><path d="m56 7v3c0 1.1-.9 2-2 2h-18c-1.1 0-2-.9-2-2v-6c0-1.1.9-2 2-2h18c1.1 0 2 .9 2 2z" fill="#fcd770"/></g><g><path d="m51 27v9h-1-5v-9c0-.55.45-1 1-1h2 2c.55 0 1 .45 1 1z" fill="#aab2bd"/></g><g><path d="m12 54h40v4h-40z" fill="#cf9e76"/></g><g><path d="m12 58v4h-6v-14h6v6z" fill="#d3a06c"/></g><g><path d="m54 48h4v14h-6v-4-4-6z" fill="#d3a06c"/></g><g><path d="m14 48h-2-6-4v-12z" fill="#b27946"/></g><g><path d="m12 36h6 4l12 12h-12l-12-12z" fill="#b27946"/></g><g><path d="m54 48h-2-10l-12-12h12z" fill="#b27946"/></g><g><path d="m51 36h11v12l-12-12z" fill="#b27946"/></g><g><path d="m22 48h-8l-12-12h8z" fill="#dfb28b"/></g><g><path d="m42 48h-8l-12-12h8z" fill="#dfb28b"/></g><g><path d="m62 48h-4-4l-12-12h3 5z" fill="#dfb28b"/></g></g><path d="m49.726 20.547 11.099-3.171c1.28-.366 2.175-1.553 2.175-2.885v-5.491c0-1.654-1.346-3-3-3h-3v-2c0-1.654-1.346-3-3-3h-18c-1.654 0-3 1.346-3 3v6c0 1.654 1.346 3 3 3h18c1.654 0 3-1.346 3-3v-2h3c.551 0 1 .449 1 1v5.491c0 .444-.298.84-.726.962l-11.099 3.171c-1.28.366-2.175 1.553-2.175 2.885v3.491h-1c-1.103 0-2 .897-2 2v8h-25v-20.184c1.161-.414 2-1.514 2-2.816v-1.81c0-.656.534-1.19 1.19-1.19.284 0 .559.102.774.287l8.036 6.887v-4.174c0-6.065-4.935-11-11-11h-8.764c-1.143 0-2.171.635-2.683 1.658l-.171.342h-.764l-.171-.342c-.511-1.023-1.54-1.658-2.683-1.658h-.764c-1.654 0-3 1.346-3 3v6c0 1.654 1.346 3 3 3h.764c1.143 0 2.171-.635 2.683-1.658l.171-.342h1.382v1c0 1.302.839 2.402 2 2.816v20.184h-10v14h4v14h8v-4h38v4h8v-14h4v-14h-11v-8c0-1.103-.897-2-2-2h-1v-3.491c0-.445.298-.84.726-.962zm5.274-10.547c0 .551-.449 1-1 1h-18c-.551 0-1-.449-1-1v-6c0-.551.449-1 1-1h18c.551 0 1 .449 1 1zm-5.414 27 10 10h-5.172l-10-10zm-28 0 10 10h-9.172l-10-10zm20.828 10-10-10h9.172l10 10zm-2.828 0h-5.172l-10-10h5.172zm-20 0h-5.172l-10-10h5.172zm-6.586 2h38v4h-38zm-6.618-40-.724 1.447c-.17.341-.513.553-.894.553h-.764c-.551 0-1-.449-1-1v-6c0-.551.449-1 1-1h.764c.381 0 .724.212.894.553l.724 1.447h3.236l.724-1.447c.17-.341.513-.553.894-.553h8.764c4.904 0 8.904 3.942 8.999 8.824l-4.732-4.056c-.579-.495-1.316-.768-2.077-.768-1.759 0-3.19 1.431-3.19 3.19v1.81c0 .551-.449 1-1 1h-6c-.551 0-1-.449-1-1v-3zm6.618 6h4v20h-4zm-10 23.414 8.586 8.586h-8.586zm4 22.586v-12h4v12zm6-4v-2h38v2zm44 4h-4v-12h4zm4-15.414-8.586-8.586h8.586zm-11-10.586h-4v-8h4z"/></g></svg>