<svg id="Layer_1" data-name="Layer 1" xmlns="http://www.w3.org/2000/svg" xmlns:xlink="http://www.w3.org/1999/xlink" viewBox="0 0 1255.26 435.47"><defs><style>.cls-1{fill:url(#linear-gradient);}.cls-2{fill:url(#linear-gradient-2);}.cls-3{fill:url(#linear-gradient-3);}.cls-4{fill:url(#linear-gradient-4);}.cls-5{fill:#757575;}.cls-6{fill:url(#linear-gradient-5);}.cls-7{fill:url(#linear-gradient-6);}.cls-8{fill:url(#linear-gradient-7);}.cls-9{fill:url(#linear-gradient-8);}.cls-10{fill:url(#linear-gradient-9);}.cls-11{fill:url(#linear-gradient-10);}</style><linearGradient id="linear-gradient" x1="524.14" y1="308.05" x2="597.82" y2="1173.61" gradientUnits="userSpaceOnUse"><stop offset="0" stop-color="#fff"/><stop offset="1"/></linearGradient><linearGradient id="linear-gradient-2" x1="694.58" y1="293.54" x2="768.27" y2="1159.1" xlink:href="#linear-gradient"/><linearGradient id="linear-gradient-3" x1="833.18" y1="281.74" x2="906.87" y2="1147.3" xlink:href="#linear-gradient"/><linearGradient id="linear-gradient-4" x1="987.5" y1="268.6" x2="1061.19" y2="1134.17" xlink:href="#linear-gradient"/><linearGradient id="linear-gradient-5" x1="1186.55" y1="251.66" x2="1260.24" y2="1117.22" xlink:href="#linear-gradient"/><linearGradient id="linear-gradient-6" x1="1329.92" y1="239.45" x2="1403.61" y2="1105.02" xlink:href="#linear-gradient"/><linearGradient id="linear-gradient-7" x1="1470.42" y1="227.49" x2="1544.11" y2="1093.06" xlink:href="#linear-gradient"/><linearGradient id="linear-gradient-8" x1="1090.67" y1="259.82" x2="1164.36" y2="1125.38" xlink:href="#linear-gradient"/><linearGradient id="linear-gradient-9" x1="1410.85" y1="232.56" x2="1484.53" y2="1098.13" xlink:href="#linear-gradient"/><linearGradient id="linear-gradient-10" x1="345.35" y1="120.94" x2="419.03" y2="986.51" xlink:href="#linear-gradient"/></defs><title>CJay.xyz</title><text x="-307" y="-176.19"/><path class="cls-1" d="M590.52,479.16l27.14,3.78q-12.87,35.54-37.49,53.73a90.8,90.8,0,0,1-55.27,18.19q-37.36,0-59.26-22.81t-21.9-65.34q0-55.41,33.3-91.65,29.67-32.32,73.74-32.32,32.61,0,52.82,17.49t23.44,47l-25.61,2.38q-4-22.25-16.72-33.23t-32.67-11q-37.63,0-60.86,33.44Q471,427.67,471,467.27q0,31.62,15.53,48.27T527,532.19q21.25,0,38.47-13.85T590.52,479.16Z" transform="translate(-307 -176.19)"/><path class="cls-2" d="M636.27,491.61l25.47-1.82q-2.25,11.9-2.24,17.49,0,11.34,7.06,18.12t19.66,6.79a30.58,30.58,0,0,0,16-4.13q6.93-4.12,11.27-12.8,3.36-6.57,6.85-23.65l30.51-145.37h27.28L747,496.09q-6.59,31.62-22,45.2t-39.32,13.57q-25.45,0-38.47-11.76t-13-33A81.88,81.88,0,0,1,636.27,491.61Z" transform="translate(-307 -176.19)"/><path class="cls-3" d="M877.63,532.89q-13.15,11.34-25.32,16.58a65,65,0,0,1-26,5.25q-20.56,0-33.16-12.11t-12.59-31a42.5,42.5,0,0,1,5.67-22,44.5,44.5,0,0,1,15-15.39q9.38-5.81,22.94-8.32,8.54-1.68,32.4-2.66t34.21-5q2.93-10.35,2.93-17.21,0-8.81-6.43-13.85-8.82-7-25.75-7-15.94,0-26.09,7.06t-14.76,20.08L795.08,445q7.83-22.11,24.84-33.86t42.88-11.75q27.57,0,43.66,13.15A31,31,0,0,1,918.77,438a128.75,128.75,0,0,1-3.5,27.57L907,502.53q-3.93,17.63-3.92,28.68,0,7,3.08,20.15H880.57A93.37,93.37,0,0,1,877.63,532.89ZM887,476.08a60.68,60.68,0,0,1-11.41,3.22q-6.08,1.13-20.35,2.38-22.11,2-31.21,5t-13.71,9.58a24.77,24.77,0,0,0-4.62,14.55,22.86,22.86,0,0,0,7.35,17.49q7.35,6.86,20.92,6.86a49.49,49.49,0,0,0,42.53-25.19Q883.23,498.06,887,476.08Z" transform="translate(-307 -176.19)"/><path class="cls-4" d="M927.3,608.73l1.54-23.79a55.54,55.54,0,0,0,15.25,2.24q7.7,0,12.46-3.5,6.15-4.62,13.43-17.35l8.12-14.55-24.77-149h24.9l11.2,75.13q3.36,22.25,5.73,44.5l66.47-119.63h26.44L993.35,571.09Q979.63,595.7,969,603.69a39.69,39.69,0,0,1-24.49,8A51.74,51.74,0,0,1,927.3,608.73Z" transform="translate(-307 -176.19)"/><path class="cls-5" d="M1065.82,551.36l6-28.68h28.68l-6.15,28.68Z" transform="translate(-307 -176.19)"/><path class="cls-6" d="M1128.51,551.36l64.64-75.42-37.08-73.17h28l12.59,26.44q7,14.84,12.59,28.4l42.82-54.84H1283l-62.4,75.13,37.49,73.46h-28l-14.83-30.22q-4.76-9.66-10.78-23.93l-44.21,54.15Z" transform="translate(-307 -176.19)"/><path class="cls-7" d="M1272.21,608.73l1.53-23.79a55.55,55.55,0,0,0,15.26,2.24c5.12,0,9.28-1.17,12.45-3.5q6.15-4.62,13.43-17.35l8.12-14.55-24.77-149h24.91l11.19,75.13q3.36,22.25,5.74,44.5l66.46-119.63H1433l-94.72,168.32q-13.73,24.61-24.35,32.6a39.68,39.68,0,0,1-24.48,8C1283.54,611.66,1272.21,608.73,1272.21,608.73Z" transform="translate(-307 -176.19)"/><path class="cls-8" d="M1421.08,551.36l4.06-19.59,79.89-90q8.54-9.51,19-19.73-18,1.83-25.89,1.82h-55.26l4.47-21.12h114.88l-3.36,16-80.59,90.52q-6.87,7.71-20.43,21.13,21.12-1.26,29-1.26h58.49l-4.62,22.25Z" transform="translate(-307 -176.19)"/><path class="cls-5" d="M444,603" transform="translate(-307 -176.19)"/><path class="cls-9" d="M997,588l265-1.06-1.5,23.79L977,610a47,47,0,0,0,4-2.5,24,24,0,0,0,4-3.5C989.9,598.39,997,588,997,588Z" transform="translate(-307 -176.19)"/><path class="cls-10" d="M1342,588l220-1-5,24-235-1a47,47,0,0,0,4-2.5,24,24,0,0,0,4-3.5C1334.9,598.39,1342,588,1342,588Z" transform="translate(-307 -176.19)"/><polygon class="cls-11" points="137 411.81 610 410.75 608.5 434.53 132 433.81 137 411.81"/></svg>